<svg xmlns="http://www.w3.org/2000/svg" width="371" height="125" viewBox="0 0 371 125"><path fill="#CEC5B6" fill-rule="evenodd" d="M365.269 99.043h-3.529V87.927h6.98c-.073 4.154-1.321 7.914-3.451 11.116zm-3.53 4.123v-2.987h2.72c-.4.525-1.59 1.963-2.718 2.987zm-14.142 4.273c4.62-1.154 7.63-3.828 9.047-7.26h3.759v4.099c-3.508 2.758-7.913 4.669-12.806 5.485v-2.324zm7.184-19.512h5.622v11.116h-3.356c.365-1.218.548-2.513.548-3.857 0-3.215-.817-5.512-2.814-7.26zm-7.184-10.883V73.75h12.806v12.637h-7.956c-1.317-.671-2.92-1.248-4.85-1.766v-7.577zm-2.272 0v7.026a94.97 94.97 0 00-5.031-.954c-1.044-.173-2.05-.353-3.025-.541V73.75h8.056v3.294zm-9.665 0v5.203c-3.998-.851-7.347-1.891-10.056-3.283l-.596-.257V73.75h10.652v3.294zm-15.985-3.294h4.197v4.413c-1.35-.821-2.926-2.455-4.197-4.413zm-2.31-5.951c-.207-2.111-.274-2.39-.274-3.728 0-.073.006-.146.007-.218h6.774v8.813h-4.853c-.865-1.561-1.495-3.255-1.654-4.867zm6.507-18.367v2.824h-2.755c.84-1.124 1.77-2.086 2.755-2.824zm11.788-2.696c-3.885.807-6.856 2.609-8.36 5.52h-2.292v-3.591c3.268-2.064 7.173-3.526 10.652-4.126v2.197zm-11.788 15.577h-6.68c.285-2.74 1.199-5.504 2.51-7.874h4.17v7.874zm1.136-7.874h1.504c-.191.822-.3 1.703-.3 2.658 0 2.204.58 3.883 1.74 5.216h-2.944v-7.874zm10.652 13.36v4.867h-10.652v-8.813h4.77c1.49.952 3.446 1.687 5.882 2.325v1.62zm1.609 0V66.57c1.877.429 3.989.918 6.352 1.322l1.704.322v4.45h-8.056V67.8zm12.989 1.349c3.898.938 7.134 2.057 9.82 3.518h-12.481v-4.021l2.66.503zm14.262 6.76c3.167 3.083 4.054 6.538 4.186 10.479h-6.966V73.75h.087c.784.552 2.073 1.497 2.693 2.158zm-19.195 34.146a33.425 33.425 0 01-3.154.154 37.77 37.77 0 01-4.902-.315v-2.237c1.518.263 3.146.406 4.902.406 1.113 0 2.162-.071 3.154-.2v2.192zm-9.665-.406c-4.352-.765-7.55-2.136-10.056-2.986v-5.095c2.584 2.683 5.846 4.729 10.056 5.756v2.325zm-11.428-3.316c-.493-.104-1.604-.416-2.045-.416-2.781 0-2.714 2.432-3.094 4.504-.373 2.033-.937 4.066-1.911 5.899-1.997 3.76-5.565 5.727-9.797 5.727-6.303 0-12.381-5.213-17.811-9.124-5.43-3.91-13.121-3.921-13.121-3.921v-1.858c6.572-2.146 6.706-3.91 6.706-20.272V56.694c0-5.23-2.012-7.913-7.242-7.913-5.231 0-9.925 4.426-16.23 10.327l-4.827 4.56V86.87c0 16.363-.086 22.13-.086 22.13H232.06v-1.744c5.9-2.146 6.169-4.023 6.169-20.386V47.84h-31.652v45.334c0 10.059 1.073 13.814 7.377 13.814 3.085 0 5.23-1.744 6.84-3.353l1.475 1.34c-1.743 2.013-5.096 5.5-14.082 5.5-13.01 0-18.24-7.108-18.24-15.156V47.842h-5.5v-2.145c7.78-1.341 16.9-9.791 20.119-25.081h2.01v24.678h31.653V34.833c0-15.424-.134-15.29-6.974-16.765v-2.146L254.86 4.12v56.732l4.828-4.56c4.829-4.56 12.339-12.205 21.996-12.205 8.718 0 18.105 3.755 18.105 18.24l.08 24.37.042 12.918c.019 5.668-.954 21.868 8.995 20.693 8.164-.964 8.89-11.453 8.606-20.13h6.72v6.154zm-4.995-15.303c1.126 2.877 2.499 5.61 4.25 8.014h-6.02c-.135-3.203-.376-6.077-.376-8.014h2.146zm18.032-46.726a31.627 31.627 0 013.695-.216c1.555 0 3 .12 4.36.31v2.19a26.421 26.421 0 00-4.36-.354 28.16 28.16 0 00-3.695.232v-2.162zm10.328.486c5.508 1.152 9.392 3.322 12.547 3.322.295 0 .734-.056 1.163-.341v4.486h-4.59a20.588 20.588 0 00-2.773-2.275 20.95 20.95 0 00-6.178-2.854c-.016-.004-.17-.04-.17-.046v-2.292zm15.048 7.467h2.059v-6.292h-2.06v6.292zm0 9.266h2.059v-7.083h-2.06v7.083zm-1.83-3.825a24.477 24.477 0 00-1.95-3.012c-.062-.083-.13-.163-.194-.246h2.636v4.265c-.048-.11-.093-.22-.144-.326-.11-.23-.224-.457-.347-.681zm7.53 19.347a15.85 15.85 0 00-.772-1.136c-1.233-1.636-2.781-3.025-4.62-4.217a23.821 23.821 0 00-1.136-.69c-1.35-.771-2.836-1.453-4.448-2.066a47.003 47.003 0 00-3.383-1.136c-1.982-.586-4.118-1.098-6.39-1.562a124.4 124.4 0 00-2.271-.44c-.385-.07-.77-.141-1.162-.21-2.722-.464-4.996-.905-6.894-1.36a46.39 46.39 0 01-1.61-.412c-5.584-1.55-7.176-3.355-7.176-6.718a9.497 9.497 0 01.174-1.86c.026-.132.058-.258.09-.385a7.142 7.142 0 01.65-1.691c1.238-2.278 3.603-3.506 6.263-4.12a18.785 18.785 0 011.609-.295 26.747 26.747 0 013.695-.241c1.519 0 2.974.134 4.36.394.78.146 1.538.332 2.273.558 5.929 1.825 10.38 6.232 12.83 12.854l.549 1.483h5.998v-20.1h-6.313l-.34 1.865a1.739 1.739 0 01-.068.276c-.03.003-.066.004-.11.004-1.366 0-3.19-.615-5.302-1.327-2.08-.701-4.458-1.5-7.244-2.045a34.796 34.796 0 00-6.633-.651c-1.263 0-2.494.07-3.695.197-.543.057-1.08.124-1.61.206-4.136.643-7.838 2.038-10.936 4.033-.388.25-.766.51-1.135.78-5.468 3.985-8.768 9.979-8.768 17.039 0 1.325.083 2.566.246 3.728.054.388.118.766.189 1.136.537 2.765 1.567 5.054 3.036 6.973.3.393.617.773.955 1.136 1.216 1.306 2.67 2.417 4.342 3.377.367.21.747.415 1.135.612 3.044 1.54 6.718 2.653 10.937 3.533.527.11 1.065.217 1.609.32.865.164 1.749.32 2.655.47 2.064.34 3.848.689 5.4 1.049.823.19 1.578.385 2.273.584 6.814 1.956 7.727 4.369 7.727 8.197 0 1.412-.224 2.7-.653 3.857a9.156 9.156 0 01-.51 1.136c-1.255 2.357-3.5 4.04-6.564 4.917-.713.204-1.472.363-2.272.478a22.19 22.19 0 01-3.154.216c-1.742 0-3.372-.144-4.902-.432a21.093 21.093 0 01-1.61-.366c-3.202-.866-5.924-2.45-8.248-4.813a21 21 0 01-1.037-1.136 23.707 23.707 0 01-1.651-2.205 28.114 28.114 0 01-1.135-1.858 38.37 38.37 0 01-2.236-4.78l-.565-1.443h-5.967v2.272c0 1.233.088 2.756.19 4.52a146.906 146.906 0 01.21 4.629c.258 8.9-.582 17.166-6.58 17.875a6.466 6.466 0 01-.733.044c-1.146 0-2.03-.352-2.78-1.108-3.067-3.095-2.99-11.724-2.952-15.871.005-.558.009-1.066.008-1.51l-.122-37.281c0-13.035-7.427-20.511-20.377-20.511-10.057 0-17.712 7.274-22.778 12.087l-1.775 1.68V.445l-1.425.712-26.722 13.36v5.385l2.005.432c3.372.727 3.888.947 4.245 1.816.724 1.758.724 6.34.724 12.683v8.19h-27.11V18.345h-6.125l-.381 1.803c-3.041 14.45-11.372 22.119-18.28 23.31l-1.886.325v6.33h5.499V95.32c0 4.939 1.712 9.172 4.95 12.244 3.626 3.44 8.862 5.184 15.562 5.184 9.176 0 13.263-3.358 15.798-6.283l1.453-1.676-4.72-4.291-1.53 1.532c-1.396 1.396-2.997 2.687-5.234 2.687-3.54 0-5.105-.466-5.105-11.542V50.114h27.109V86.87c0 16.552-.443 16.713-4.674 18.252l-1.496.543v5.606h27.385s-.042-7.852-.042-24.401V64.648l4.23-3.995c5.954-5.573 10.256-9.6 14.556-9.6 3.224 0 4.97.899 4.97 5.64v30.178c0 16.548-.29 16.643-5.14 18.227l-1.565.395.003 5.768s8.595-.378 14.062 3.505c.717.509 1.437 1.05 2.172 1.593 5.039 3.73 10.75 7.958 16.966 7.958 5.16 0 9.463-2.527 11.803-6.932.964-1.814 1.663-3.958 2.138-6.555.056-.303.104-.613.15-.923.08-.536.214-1.417.382-1.688.048-.013.15-.031.329-.031.39 0 .864.086 1.4.228.353.094.733.21 1.136.346.556.185 1.152.4 1.78.628 2.383.863 5.353 1.934 9.157 2.562.52.086 1.055.166 1.609.234 1.508.184 3.137.293 4.902.293 1.07 0 2.12-.047 3.154-.136a34.72 34.72 0 002.272-.275c5.502-.835 10.37-2.928 14.22-5.96.39-.308.767-.627 1.137-.953a24.5 24.5 0 004.309-4.976c.242-.372.474-.751.695-1.136a22.96 22.96 0 001.36-2.778 23.114 23.114 0 001.68-8.671v-.052c0-4.297-.923-7.722-2.653-10.498zm-192.487 32.019H152.79V96.054l-1.475 1.475c-6.036 6.035-13.144 12.74-22.801 12.74-1.165 0-2.338-.067-3.495-.215-6.194-.795-11.963-3.904-14.047-11.285-.041-.144-.084-.284-.122-.431-2.327 4.557-7.666 14.053-14.213 19.52H84.169v-2.67a9.099 9.099 0 003.91 1.56c.756.115 1.561.15 2.424.093l.057-.004c6.456-.486 12.524-8.751 15.619-13.734 1.425-2.294 2.788-4.855 4.086-7.568-.029-.557-.042-1.034-.073-1.572l-.052-2.801V71.375c0-12.405-.135-12.734-6.656-14.147v-2.064l21.217-10.608 2.07-1.212V95.65c0 6.433 2.136 9.898 6.517 10.289.278.024.563.038.859.038 5.23 0 10.059-4.157 17.168-11.266l1.475-1.475V71.375c0-12.606-.134-12.74-6.974-14.216v-2.012l23.604-11.803v43.588c0 16.364.134 18.242 6.438 20.388v1.743zm-84.766 12.174c-2.212.822-4.568 1.13-6.923 1.085v-3.02l10.511.026c-1.059.688-2.487 1.5-3.588 1.909zm-8.705-3.378h-4.72v-14.681c.946 3.899 2.351 7.786 4.72 10.417v4.264zm0 4.368a25.702 25.702 0 01-1.813-.23 23.234 23.234 0 01-2.907-.664v-2.031h4.72v2.925zm-6.901-23.91H63.971v-20.4h6.424c2.071 3.813 4.02 8.415 5.091 12.565v7.837zm0 19.542h-4.661c-2.754-2.08-5.004-4.76-6.854-7.8v-9.817l11.515-.018v17.636zm0 3.006c-.7-.194-2.052-.983-2.853-1.563h1.031l1.822.018v1.545zM58.898 98.318c-1.867-6.036-2.981-12.228-3.927-17.286a112.986 112.986 0 00-.629-3.116H61.7v20.402h-2.802zm2.802 6.83v.61a57.726 57.726 0 01-2.181-5.517H61.7v4.907zm-9.933-36.151H61.7v6.736h-7.861c-.643-2.633-1.331-4.86-2.072-6.736zm-.474-1.136c-2.167-4.92-4.777-7.157-8.009-8.162v-2.942h5.518c5.08 0 9.384-.765 12.898-2.276V58c-4.104.605-8.443.9-12.898.9h-1.67s8.183 1.666 14.568 7.749v1.21H51.293zm-9.145-13.376h-9.45V12.89h11.276c6.341 0 12.748.578 17.726 3.202.796.42 1.554.894 2.271 1.425a15.559 15.559 0 012.797 2.65 15.83 15.83 0 011.541 2.273c1.662 2.955 2.631 6.79 2.631 11.783a33.01 33.01 0 01-.202 3.728 26.25 26.25 0 01-.201 1.413c-.841 5.029-3.016 8.788-6.566 11.297-.702.497-1.461.94-2.271 1.34-3.365 1.659-7.656 2.483-12.898 2.483h-6.654zm-1.078 4.72a22.674 22.674 0 00-1.774-.2 48.362 48.362 0 00-3.504-.102h-5.365v8.958h-5.46V39.365h5.46v17.392H41.07v2.448zm-2.595 48.115v1.743H24.967v-8.822h6.622c1.062 4.83 3.076 5.99 6.886 7.079zm-19.59-8.214h4.301v-21.19h-4.301v21.19zm-.001 9.957h4.301v-8.822h-4.301v8.822zm-8.377-9.958h-.276c.687-4.161.845-10.683.876-21.19h5.65v21.19h-6.25zm6.25 9.958H3.201v-1.743c3.809-1.09 5.789-2.25 6.817-7.08h6.739v8.823zM3.201 10.218V8.474h13.556v11.694h-6.279c-.843-7.34-2.794-8.67-7.277-9.95zm15.683 65.515h4.301v-6.736h-4.301v6.736zm.001-7.871h4.301V39.365h-4.301v28.497zm0-29.91h4.301V22.44h-4.301v15.51zm0-17.783h4.301V8.474h-4.301v11.695zm6.082 57.747h5.469c.037 10.506.219 17.028.932 21.189h-6.401v-21.19zm-13.855-2.183l.002-3.284v-3.452h5.643v6.736h-5.645zm.258-37.781h-.268c-.031-6.765-.128-11.771-.411-15.511h6.066v15.51H11.37zm-.263 1.413h5.65V67.86h-5.643V45.089c0-2.033-.001-3.935-.007-5.724zM30.43 75.733h-5.463v-6.736h5.46v3.452c0 1.136.001 2.225.003 3.284zm-5.463-37.781h5.46V22.44h-5.46v15.51zm0-29.478H41.07v2.146H30.427v9.548h-5.46V8.474zm18.317 2.139v-2.14h1.092c6.55 0 12.299.35 17.324 1.012v4.181c-4.31-1.945-10.076-3.046-17.726-3.046h-.69v-.007zm20.687 4.052V9.813c4.227.667 7.901 1.569 11.067 2.686v7.669h-5.374c-1.387-2.066-3.25-3.86-5.693-5.32v-.183zm11.067 23.287h-2.021c.127-1.188.194-2.43.194-3.728 0-4.346-.626-8.351-2.259-11.783h4.086v15.51zm0 16.6c-3.353 1.344-7.082 2.365-11.067 3.08V53.33c4.893-2.874 7.872-7.542 8.865-13.965h2.202v15.188zM64.085 68.998c1.891 2.037 3.575 4.307 5.056 6.736h-5.17v-6.736h.114zm13.582-29.632h4.72V50.65a33.754 33.754 0 01-4.72 2.745v-14.03zm0-1.413h4.72V22.44h-4.72v15.51zm0-24.427a32.072 32.072 0 014.72 2.488v4.155h-4.72v-6.643zm6.502 25.84h6.811c-1.191 3.924-3.556 7.22-6.811 9.924v-9.924zm0-16.924h4.766c2.02 3.209 2.918 6.862 2.918 10.845 0 1.639-.172 3.193-.501 4.666h-7.183V22.44zm0-5.17a21.351 21.351 0 013.081 2.897h-3.081v-2.896zm87.523 69.662V39.67l-28.148 14.073v5.249l1.793.387c3.258.703 4.127.979 4.495 1.722.686 1.385.686 5.114.686 10.274v20.92l-.81.81c-7.03 7.032-11.368 10.602-15.561 10.602-1.527 0-5.105 0-5.105-8.056V39.67l-28.148 14.073v5.249l1.793.387c3.259.703 4.127.979 4.495 1.722.686 1.385.686 5.114.686 10.274V95.4a77.563 77.563 0 01-3.618 6.505c-4.816 7.749-9.868 12.366-13.901 12.67-.228.015-.453.023-.672.023-2.291 0-4.08-.906-5.508-2.443-.669-.72-1.257-1.583-1.782-2.553-1.369-2.535-2.292-5.822-3.02-9.361a76.06 76.06 0 01-.226-1.136 137.303 137.303 0 01-.624-3.506c-.214-1.288-.417-2.504-.63-3.537a56.71 56.71 0 00-2.849-9.47 55.036 55.036 0 00-3.164-6.622 47.032 47.032 0 00-4.792-6.973 48 48 0 00-.979-1.136 39.758 39.758 0 00-4.403-4.2 34.147 34.147 0 00-4.119-2.865 83.585 83.585 0 004.119-.47 75.53 75.53 0 002.271-.356c4.056-.694 7.753-1.683 11.067-2.941a46.355 46.355 0 002.629-1.086 37.837 37.837 0 004.72-2.547 32.734 32.734 0 001.782-1.216c4.66-3.425 7.789-7.745 9.16-12.815.126-.465.237-.936.333-1.413.301-1.497.463-3.051.463-4.666 0-4.058-.869-7.675-2.572-10.845a20.335 20.335 0 00-1.42-2.273c-1.544-2.142-3.53-4.044-5.964-5.694a28.93 28.93 0 00-1.782-1.123 37.086 37.086 0 00-4.72-2.292 46.803 46.803 0 00-2.629-.971C71.775 8.992 68.093 8.13 63.971 7.5a88.187 88.187 0 00-2.271-.32c-5.128-.654-10.889-.98-17.324-.98H.93v5.73l1.647.47c3.244.927 4.836 1.386 5.6 7.767.081.687.154 1.44.218 2.273.273 3.559.39 8.522.43 15.51l.007 1.414c.008 1.78.011 3.684.011 5.723v27.362a1329.616 1329.616 0 01-.007 4.657c-.037 11.669-.239 18.207-.913 21.999a18.4 18.4 0 01-.236 1.136c-.891 3.687-2.441 4.132-5.11 4.895l-1.647.47v5.729h39.816v-5.73l-1.648-.47c-2.663-.76-4.244-1.214-5.168-4.894a18.13 18.13 0 01-.245-1.136c-.706-3.793-.936-10.331-.978-22l-.004-1.135c-.003-1.13-.005-2.298-.005-3.521V61.174h3.094c2.343 0 4.451 0 6.356.525.387.107.765.236 1.136.39 2.065.86 3.878 2.53 5.487 5.772.178.359.353.738.526 1.136.804 1.852 1.556 4.142 2.261 6.973.092.37.184.747.275 1.136.31 1.333.612 2.778.905 4.344l.162.866c.917 4.917 2.034 10.895 3.871 16.789.118.379.239.758.363 1.136 1.193 3.629 2.674 7.196 4.566 10.435a36.27 36.27 0 002.271 3.445 28.867 28.867 0 003.933 4.315c.443.394.9.773 1.372 1.136a23.503 23.503 0 005.762 3.267c.842.33 1.718.62 2.629.862 1.479.394 3.049.667 4.72.803.28.023.561.044.846.06.314.016.625.019.936.025.146.002.295.01.438.01 2.626 0 5.074-.414 7.277-1.233 2.182-.811 4.278-2.14 6.258-3.794.435-.363.864-.743 1.288-1.136 4.513-4.187 8.354-9.934 11.136-14.798 3.325 5.718 9.625 8.904 17.948 8.904 9.46 0 16.752-5.968 22.004-11.035v9.828h27.612v-5.641l-1.54-.525c-4.622-1.573-4.898-1.667-4.898-18.236z"/></svg>